<?xml version="1.0" standalone="no"?>
<!DOCTYPE svg PUBLIC "-//W3C//DTD SVG 20010904//EN"
 "http://www.w3.org/TR/2001/REC-SVG-20010904/DTD/svg10.dtd">
<svg version="1.0" xmlns="http://www.w3.org/2000/svg"
 width="302.000000pt" height="302.000000pt" viewBox="0 0 302.000000 302.000000"
 preserveAspectRatio="xMidYMid meet">

<g transform="translate(0.000000,302.000000) scale(0.100000,-0.100000)"
fill="#000000" stroke="none">
<path d="M1998 2843 c-10 -2 -18 -11 -18 -18 0 -7 -21 -21 -47 -31 -27 -10
-58 -29 -71 -41 -13 -13 -27 -23 -32 -23 -5 0 -23 -13 -40 -30 -17 -16 -34
-30 -39 -30 -14 0 -141 -129 -141 -143 0 -7 -11 -20 -25 -27 -14 -7 -25 -21
-25 -30 0 -9 -13 -31 -29 -47 -15 -17 -35 -49 -43 -73 l-14 -43 -172 -1 -171
-1 -13 48 c-6 26 -15 47 -20 47 -4 0 -8 7 -8 15 0 8 -4 15 -9 15 -5 0 -12 10
-16 23 -11 37 -28 67 -39 67 -6 0 -22 23 -35 50 -14 27 -33 52 -43 56 -10 3
-25 18 -35 35 -10 16 -25 32 -35 35 -10 3 -18 9 -18 14 0 5 -16 14 -35 21 -19
7 -37 21 -40 31 -4 10 -22 20 -48 25 -40 8 -42 7 -50 -17 -4 -14 -10 -64 -14
-112 -4 -64 -10 -88 -19 -88 -11 0 -14 -28 -14 -130 0 -109 2 -130 15 -130 11
0 15 -11 15 -37 0 -59 30 -228 40 -231 6 -2 10 -10 10 -19 0 -8 7 -21 15 -29
8 -9 18 -27 22 -42 3 -15 17 -37 30 -49 23 -22 31 -53 13 -53 -5 0 -10 -7 -10
-15 0 -8 4 -15 9 -15 4 0 11 -32 13 -71 3 -39 10 -74 15 -78 14 -9 25 -74 27
-165 2 -55 7 -81 16 -84 7 -3 22 -14 33 -25 14 -14 22 -17 25 -9 7 21 42 14
42 -8 0 -21 27 -40 59 -40 12 0 21 -4 21 -10 0 -6 33 -10 79 -10 44 0 83 -4
86 -10 3 -5 -1 -23 -10 -39 -19 -38 -19 -139 0 -164 13 -18 19 -16 129 42 67
36 117 57 121 51 3 -5 3 -25 -1 -45 -12 -65 -4 -68 88 -34 115 42 248 106 275
131 15 14 23 33 23 54 0 28 -5 34 -42 49 -70 28 -114 99 -84 135 8 8 16 27 20
43 3 15 13 27 21 27 14 0 18 17 33 145 7 60 7 60 50 75 23 8 42 20 42 27 0 7
23 22 50 34 28 12 50 25 50 30 0 5 9 18 19 28 10 10 22 37 26 60 4 23 11 41
16 41 5 0 9 9 9 20 0 11 4 20 8 20 14 0 32 203 32 350 0 157 -17 364 -31 368
-5 2 -9 21 -9 42 0 25 -5 40 -16 44 -9 3 -16 5 -17 5 -1 -1 -10 -3 -19 -6z"/>
<path d="M1755 1125 c-5 -2 -76 -24 -157 -49 -147 -46 -148 -47 -148 -76 0
-17 3 -30 6 -30 19 0 331 94 342 102 6 6 12 21 12 34 0 18 -5 24 -22 23 -13 0
-27 -2 -33 -4z"/>
<path d="M1050 1108 c0 -51 25 -181 36 -185 7 -3 38 9 67 26 30 17 62 31 72
31 21 0 68 -32 121 -82 23 -22 44 -36 47 -31 9 14 -5 253 -15 253 -6 0 -38
-16 -72 -35 -35 -19 -69 -35 -77 -35 -8 0 -47 16 -88 35 -80 38 -91 41 -91 23z"/>
<path d="M2102 669 c-58 -29 -85 -70 -90 -138 -5 -70 22 -115 88 -148 86 -44
198 -18 248 57 31 46 28 130 -8 179 -47 67 -156 90 -238 50z m117 -73 c19 -23
10 -136 -11 -150 -34 -21 -53 4 -56 73 -3 66 7 91 38 91 10 0 23 -6 29 -14z"/>
<path d="M2525 675 c-69 -38 -95 -80 -95 -157 0 -66 24 -108 76 -133 49 -24
131 -31 177 -16 53 18 97 72 97 121 l0 40 -70 0 -70 0 0 -30 c0 -20 5 -30 15
-30 20 0 19 -26 -1 -34 -56 -22 -84 6 -84 84 0 67 15 90 59 90 15 0 36 -9 46
-20 12 -13 31 -20 57 -20 l38 0 0 56 0 55 -52 -1 c-29 0 -78 2 -108 5 -41 4
-63 2 -85 -10z"/>
<path d="M130 640 c0 -29 4 -40 15 -40 12 0 15 -16 15 -80 0 -64 -3 -80 -15
-80 -11 0 -15 -11 -15 -40 l0 -40 95 0 95 0 0 40 c0 29 -4 40 -15 40 -8 0 -15
8 -15 19 0 15 11 19 72 24 82 7 118 27 132 75 12 42 -18 93 -64 109 -20 7 -92
12 -167 12 l-133 1 0 -40z m224 -43 c27 -20 10 -47 -30 -47 -31 0 -34 3 -34
30 0 25 4 30 23 30 13 0 31 -6 41 -13z"/>
<path d="M530 640 c0 -29 4 -40 15 -40 12 0 15 -16 15 -80 0 -64 -3 -80 -15
-80 -11 0 -15 -11 -15 -40 l0 -40 155 0 155 0 0 65 0 65 -40 0 c-36 0 -40 -2
-40 -25 0 -22 -4 -25 -40 -25 l-40 0 0 80 c0 73 2 80 20 80 17 0 20 7 20 40
l0 40 -95 0 -95 0 0 -40z"/>
<path d="M910 640 c0 -29 4 -40 15 -40 21 0 -36 -154 -59 -158 -11 -3 -16 -14
-16 -43 l0 -39 65 0 65 0 0 34 c0 19 -5 36 -12 38 -6 2 -9 12 -5 21 5 13 18
17 52 17 38 0 45 -3 45 -20 0 -11 -4 -20 -10 -20 -5 0 -10 -16 -10 -35 l0 -35
85 0 85 0 0 39 c0 29 -5 40 -16 43 -23 4 -80 158 -59 158 11 0 15 11 15 40 l0
40 -120 0 -120 0 0 -40z m129 -122 c1 -5 -12 -8 -29 -8 -19 0 -28 4 -25 13 2
6 10 26 16 42 l11 30 13 -35 c8 -19 14 -38 14 -42z"/>
<path d="M1220 640 c0 -25 5 -40 13 -40 19 0 87 -105 87 -134 0 -14 -4 -26
-10 -26 -5 0 -10 -18 -10 -40 l0 -40 85 0 85 0 0 40 c0 22 -4 40 -10 40 -34 0
43 159 78 160 7 0 12 15 12 40 l0 40 -60 0 -61 0 2 -48 c2 -30 -3 -57 -12 -70
-15 -21 -15 -21 -33 8 -9 17 -12 30 -7 30 6 0 11 18 11 40 l0 40 -85 0 -85 0
0 -40z"/>
<path d="M1590 641 c0 -23 5 -41 10 -41 6 0 10 -33 10 -80 0 -47 -4 -80 -10
-80 -5 0 -10 -18 -10 -41 l0 -41 134 4 c118 3 138 6 163 24 92 69 88 211 -9
269 -27 16 -55 20 -160 23 l-128 4 0 -41z m204 -44 c12 -9 20 -31 23 -64 5
-42 2 -54 -16 -72 -11 -11 -30 -21 -41 -21 -18 0 -20 7 -20 85 0 75 2 85 18
85 10 0 26 -6 36 -13z"/>
<path d="M2716 361 c-9 -13 3 -39 20 -45 20 -8 29 20 14 39 -14 17 -26 19 -34
6z"/>
<path d="M2781 351 c-16 -28 -14 -33 12 -29 14 2 22 10 22 22 0 27 -21 31 -34
7z"/>
<path d="M2684 315 c-8 -19 3 -35 24 -35 13 0 18 -8 17 -27 0 -24 4 -27 43
-29 51 -3 60 11 37 55 -16 31 -47 42 -60 20 -5 -6 -13 -3 -22 10 -17 25 -31
27 -39 6z"/>
<path d="M2814 315 c-4 -8 -3 -22 0 -31 5 -13 9 -14 21 -4 8 7 15 21 15 31 0
23 -28 25 -36 4z"/>
</g>
</svg>
